<svg xmlns="http://www.w3.org/2000/svg" xmlns:xlink="http://www.w3.org/1999/xlink" fill="none" version="1.1" width="46.21875" height="57" viewBox="0 0 46.21875 57"><g style="mix-blend-mode:passthrough"><path d="M33.125,38.0781L20.2344,47L41.5312,47L39.2656,57L0,57L2.07812,47L22.7812,31.5312Q27.625,27.875,29.7656,24.7656Q31.9219,21.6562,31.9219,18.5156Q31.9219,15.0156,29.6875,13.0156Q27.4688,11,23.6719,11Q21.4062,11,18.4375,11.8906Q15.4688,12.7812,10.4688,15L12.0781,2.54688Q15.9844,1.25,19.6562,0.625Q23.3281,0,26.8125,0Q35.75,0,40.9844,4.5Q46.2188,9,46.2188,16.75Q46.2188,22.5469,42.8281,28.0625Q39.4531,33.5781,33.125,38.0781Z" fill="#EAEAEA" fill-opacity="1"/></g></svg>