<svg xmlns="http://www.w3.org/2000/svg" xmlns:xlink="http://www.w3.org/1999/xlink" fill="none" version="1.1" width="47.234375" height="58" viewBox="0 0 47.234375 58"><g style="mix-blend-mode:passthrough"><path d="M32.6719,28Q37.7188,29.3594,40.2344,32.2969Q42.75,35.2188,42.75,39.6719Q42.75,48.3438,36.2812,53.1719Q29.8125,58,18.0938,58Q13.75,58,9.23438,57.0938Q4.73438,56.2031,0,54.4219L2.98438,44Q5.79688,45.5,9.10938,46.25Q12.4375,47,16.3438,47Q22.0938,47,25.4219,44.8281Q28.7656,42.6562,28.7656,38.9844Q28.7656,35.8906,25.9531,34.4531Q23.1406,33,17.1562,33Q15.875,33,15.0938,33.0312Q14.3125,33.0469,13.6406,33.0469L15.6406,22.9375Q16.3438,22.9375,17.5781,22.9688Q18.8125,23,19.3906,23Q27.3281,23,30.4219,21.6562Q33.5312,20.2969,33.5312,17Q33.5312,14.2188,31.1562,12.6094Q28.7969,11,24.6562,11Q21.8906,11,18.4219,11.75Q14.9688,12.5,10.9062,14L12.5938,2.125Q16.4219,1.04688,20.2656,0.53125Q24.1094,0,28.0156,0Q37,0,42.1094,3.84375Q47.2344,7.6875,47.2344,14.4062Q47.2344,19.9531,43.3281,23.625Q39.4219,27.2969,32.6719,28Z" fill="#FFE6D9" fill-opacity="1"/></g></svg>