<svg xmlns="http://www.w3.org/2000/svg" xmlns:xlink="http://www.w3.org/1999/xlink" fill="none" version="1.1" width="70.4594912765142" height="76.81585807041279" viewBox="0 0 70.4594912765142 76.81585807041279"><g transform="matrix(0.7678414583206177,0.6406399607658386,-0.5609768033027649,0.8278315663337708,6.526049170234465,-18.008589535976732)"><path d="M83.26381256066009,16.9394C83.26381256066009,15.062,82.54321256066007,13.2965,81.23601256066007,11.9699C79.94201256066007,10.6475,78.18051256066008,9.90601,76.34441256066007,9.91077C74.50701256066009,9.90546,72.74381256066007,10.647,71.44841256066007,11.9699C70.14601256066007,13.2851,69.41611256066008,15.0746,69.42141256066009,16.9394C69.42141256066009,18.8147,70.14121256066008,20.5783,71.44931256066008,21.9063C71.71991256066008,22.1815,72.01321256066008,22.4234,72.31791256066008,22.6465C69.99331256066009,25.0078,66.30261256066008,25.6702,63.28821256066008,24.0212C60.99461256066008,22.767,59.205512560660075,20.5887,58.509212560660075,18.235C58.20751256066008,16.8162,58.96101256066008,13.3014,59.001312560660075,13.1926C61.148812560660076,11.9982,62.608312560660075,9.68098,62.608312560660075,7.02421C62.608312560660075,5.15034,61.888512560660075,3.3871,60.58041256066008,2.05871C59.28651256066008,0.736861,57.52541256066007,-0.0044602,55.68971256066008,0.000027352C53.85241256066008,-0.00520235,52.08941256066008,0.736121,50.793712560660076,2.05871C49.49161256066007,3.37243,48.76131256066007,5.1605,48.76591256066008,7.02421C48.76061256066008,8.88977,49.49091256066008,10.6799,50.793712560660076,11.9955C51.33431256066008,12.5421,51.96021256066008,12.994,52.646212560660075,13.3329C52.66081256066008,13.3635,52.67281256066008,13.3945,52.68871256066008,13.4242C52.836712560660075,13.7035,53.42761256066008,16.8536,53.05551256066008,18.2377C52.34941256066008,20.6152,50.53461256066008,22.8268,48.210412560660075,24.0981C45.101712560660076,25.7966,41.378212560660074,25.1382,39.007112560660076,22.6816C40.786012560660076,21.4089,41.952712560660075,19.312,41.952712560660075,16.9399C41.952712560660075,15.0597,41.23471256066008,13.2943,39.93021256066008,11.9704C38.62301256066008,10.6424,36.883992560660076,9.91123,35.03420256066008,9.91123C33.18441256066008,9.91123,31.445812560660077,10.6424,30.138192560660077,11.9704C28.835753560660077,13.2855,28.105571590660077,15.075,28.110337108160078,16.9399C28.106021830660076,18.8041,28.836551560660077,20.5926,30.13908256066008,21.9067C30.964582560660077,22.7468,31.987382560660077,23.3594,33.11088256066007,23.6866L38.89101256066007,48.0432C39.17781256066008,49.2552,40.24601256066008,50.1096,41.47441256066008,50.1096L69.90421256066008,50.1096C71.13231256066007,50.1097,72.20031256066008,49.2553,72.48761256066007,48.0432L78.26861256066007,23.6826C81.14961256066007,22.8331,83.26381256066009,20.135,83.26381256066009,16.9394Z" fill="#FFE6D9" fill-opacity="1"/></g></svg>