<svg xmlns="http://www.w3.org/2000/svg" xmlns:xlink="http://www.w3.org/1999/xlink" fill="none" version="1.1" width="92" height="92" viewBox="0 0 92 92"><g style="mix-blend-mode:passthrough"><g style="mix-blend-mode:passthrough"><ellipse cx="46" cy="46" rx="46" ry="46" fill="#EDF8FF" fill-opacity="1"/></g><g><path d="M49,34.99993896484375Q49,35.14731896484375,48.98796,35.29398896484375Q48.97592,35.44065896484375,48.95196,35.58520896484375Q48.928,35.729758964843754,48.89235,35.87078896484375Q48.856700000000004,36.01182896484375,48.8097,36.14798896484375Q48.7627,36.28414896484375,48.7048,36.41412896484375Q48.64691,36.54410896484375,48.57867,36.66664896484375Q48.51044,36.78918896484375,48.43253,36.90311896484375Q48.35461,37.01704896484375,48.26777,37.12125896484375Q48.18092,37.22546896484375,48.08598,37.31896896484375Q47.99104,37.412468964843754,47.88893,37.49434896484375Q47.78681,37.57622896484375,47.67849,37.64569896484375Q47.57018,37.71517896484375,47.45671,37.77157896484375Q47.34324,37.82797896484375,47.22571,37.87075896484375Q47.10818,37.91353896484375,46.98773,37.94229896484375Q46.86727,37.97104896484375,46.74504,37.98548896484375Q46.62282,37.99993896484375,46.5,37.99993896484375Q46.37718,37.99993896484375,46.25496,37.98548896484375Q46.13273,37.97104896484375,46.01227,37.94228896484375Q45.89182,37.91353896484375,45.77429,37.87075896484375Q45.65676,37.82797896484375,45.54329,37.77157896484375Q45.42982,37.71517896484375,45.32151,37.64569896484375Q45.21319,37.57622896484375,45.11107,37.49434896484375Q45.00896,37.412468964843754,44.914017,37.31896896484375Q44.819078,37.22546896484375,44.732233,37.12125896484375Q44.645388,37.01704896484375,44.567474,36.90311896484375Q44.48956,36.78918896484375,44.421326,36.66664896484375Q44.353092,36.54410896484375,44.295197,36.41412896484375Q44.237301,36.28414896484375,44.190301,36.14798896484375Q44.143301,36.01182896484375,44.107649,35.87078896484375Q44.0719972,35.729758964843754,44.0480368,35.58520896484375Q44.0240764,35.44065896484375,44.0120382,35.29398896484375Q44,35.14731896484375,44,34.99993896484375Q44,34.85255896484375,44.0120382,34.70588896484375Q44.0240764,34.55921896484375,44.0480368,34.41466896484375Q44.0719972,34.270118964843746,44.107649,34.12908896484375Q44.143301,33.98804896484375,44.190301,33.85188896484375Q44.237301,33.71572896484375,44.295197,33.58574896484375Q44.353092,33.45576896484375,44.421326,33.33322896484375Q44.48956,33.21068896484375,44.567474,33.09675896484375Q44.645388,32.98283196484375,44.732233,32.87861896484375Q44.819078,32.77440496484375,44.914017,32.68090796484375Q45.00896,32.58740996484375,45.11107,32.50552996484375Q45.21319,32.42364996484375,45.32151,32.35417496484375Q45.42982,32.28469996484375,45.54329,32.22829996484375Q45.65676,32.17189996484375,45.77429,32.12911796484375Q45.89182,32.08633566484375,46.01227,32.05758316484375Q46.13273,32.02883056484375,46.25496,32.01438476484375Q46.37718,31.99993896484375,46.5,31.99993896484375Q46.62282,31.99993896484375,46.74504,32.01438476484375Q46.86727,32.02883056484375,46.98773,32.05758316484375Q47.10818,32.08633566484375,47.22571,32.12911796484375Q47.34324,32.17189996484375,47.45671,32.22829996484375Q47.57018,32.28469996484375,47.67849,32.35417496484375Q47.78681,32.42364996484375,47.88893,32.50552996484375Q47.99104,32.58740996484375,48.08598,32.68090796484375Q48.18092,32.77440496484375,48.26777,32.87861896484375Q48.35461,32.98283196484375,48.43253,33.09675896484375Q48.51044,33.21068896484375,48.57867,33.33322896484375Q48.64691,33.45576896484375,48.7048,33.58574896484375Q48.7627,33.71572896484375,48.8097,33.85188896484375Q48.856700000000004,33.98804896484375,48.89235,34.12908896484375Q48.928,34.270118964843746,48.95196,34.41466896484375Q48.97592,34.55921896484375,48.98796,34.70588896484375Q49,34.85255896484375,49,34.99993896484375Z" fill="#FFFFFF" fill-opacity="1"/></g><g><path d="M69.3746,59.74103896484375L66.21340000000001,59.74103896484375L66.21340000000001,35.42083896484375C66.21340000000001,33.59993896484375,64.74000000000001,32.12683896484375,62.9275,32.12683896484375L56.8898,32.12683896484375L56.8898,29.53221896484375C56.8898,28.96954896484375,56.652,28.43421896484375,56.2388,28.05518896484375L47.9987,20.52153396484375C47.240899999999996,19.83058396484375,46.0847,19.82552196484375,45.3209,20.50981196484375L36.9249,28.05518896484375C36.5036,28.43492896484375,36.2628,28.97599896484375,36.262299999999996,29.54394896484375L36.262299999999996,32.12683896484375L30.22449,32.12683896484375C28.408079999999998,32.12683896484375,26.938589999999998,33.603838964843746,26.938589999999998,35.42083896484375L26.938589999999998,59.74103896484375L23.62541,59.74103896484375C22.728901,59.74103896484375,22,60.47173896484375,22,61.37053896484375C22,62.26923896484375,22.728899,62.99993896484375,23.62541,62.99993896484375L69.3746,62.99993896484375C70.27109999999999,62.99993896484375,71,62.26923896484375,71,61.37053896484375C71,60.47173896484375,70.27109999999999,59.74103896484375,69.3746,59.74103896484375ZM46.576,29.66116896484375C49.745000000000005,29.66116896484375,52.3254,32.24793896484375,52.3254,35.42473896484375C52.3254,38.601538964843755,49.745000000000005,41.18823896484375,46.576,41.18823896484375C43.4071,41.18823896484375,40.8267,38.601538964843755,40.8267,35.42473896484375C40.8267,32.24793896484375,43.4032,29.66116896484375,46.576,29.66116896484375ZM52.567,59.74103896484375C51.670500000000004,59.74103896484375,50.9416,59.01033896484375,50.9416,58.11163896484375L50.9416,50.40993896484375C50.9416,49.83163896484375,50.4739,49.36273896484375,49.897,49.36273896484375L43.2511,49.36273896484375C42.6742,49.36273896484375,42.2065,49.83163896484375,42.2065,50.40993896484375L42.2065,59.73713896484375L38.959599999999995,59.73713896484375L38.959599999999995,50.40993896484375C38.959599999999995,48.03423896484375,40.8812,46.10783896484375,43.2511,46.10783896484375L49.897,46.10783896484375C52.2669,46.10783896484375,54.1885,48.03423896484375,54.1885,50.40993896484375L54.1885,58.11163896484375C54.1922,59.01153896484375,53.4647,59.74263896484375,52.567,59.74103896484375Z" fill="#82CBFF" fill-opacity="1"/></g><g><path d="M63.4492,31.980738964843752L57.361,31.980738964843752L57.361,29.417388964843752C57.361,28.86148896484375,57.1213,28.33260896484375,56.7047,27.95814896484375L48.3958,20.51525096484375C47.631699999999995,19.83262396484375,46.465900000000005,19.82762296484375,45.6957,20.50366996484375L37.233599999999996,27.95814896484375C36.8088,28.33331896484375,36.5659,28.86786896484375,36.5654,29.428968964843747L36.5654,31.980738964843752L30.47726,31.980738964843752C28.645699999999998,31.980738964843752,27.16395,33.43993896484375,27.16395,35.23503896484375L27.16395,59.26233896484375L24,59.26233896484375C26.11072,60.23323896484375,28.33115,60.95503896484375,30.61482,61.41263896484375C33.46596,61.98573896484375,36.3879,62.14053896484375,39.2852,61.87193896484375Q40.586200000000005,61.77933896484375,42.559200000000004,61.38173896484375C45.6592,60.73973896484375,48.634299999999996,59.61363896484375,51.3711,58.04633896484375L51.3711,50.04363896484375C51.3711,49.47233896484375,50.8995,49.009038964843754,50.3178,49.009038964843754L43.6126,49.009038964843754C43.0308,49.009038964843754,42.559200000000004,49.472238964843754,42.559200000000004,50.04363896484375L42.559200000000004,57.65253896484375C42.559200000000004,58.54043896484375,41.8243,59.26233896484375,40.9203,59.26233896484375C40.0163,59.26233896484375,39.2813,58.54043896484375,39.2813,57.65253896484375L39.2813,50.04363896484375C39.2813,47.696538964843754,41.219,45.79333896484375,43.608599999999996,45.79333896484375L50.3099,45.79333896484375C52.699600000000004,45.79333896484375,54.637299999999996,47.696538964843754,54.637299999999996,50.04363896484375L54.637299999999996,55.86513896484375C59.9905,51.76923896484375,63.9405,45.85503896484375,65.4026,38.81363896484375C65.79560000000001,36.91823896484375,65.9882,35.02663896484375,66,33.15813896484375C65.37219999999999,32.41023896484375,64.43610000000001,31.97813896484375,63.4492,31.980738964843752ZM46.965199999999996,40.92913896484375C43.769800000000004,40.92913896484375,41.1679,38.373538964843746,41.1679,35.23503896484375C41.1679,32.09653896484375,43.769800000000004,29.540918964843748,46.965199999999996,29.540918964843748C50.1606,29.540918964843748,52.7625,32.09653896484375,52.7625,35.23503896484375C52.7625,38.373538964843746,50.1606,40.92913896484375,46.965199999999996,40.92913896484375Z" fill="#45E0FF" fill-opacity="1"/></g><g><path d="M58,32.09273896484375L56.6493,32.09273896484375L56.6493,29.50544896484375C56.6493,28.944348964843748,56.4139,28.41051896484375,56.0049,28.03255896484375L47.8468,20.52006896484375C47.0965,19.83105996484375,45.9518,19.82601196484375,45.1956,20.50837996484375L36.88697,28.03255896484375C36.46987,28.41122896484375,36.23143,28.95077896484375,36.23092,29.517138964843753L36.23092,32.09273896484375L30.25321,32.09273896484375C28.45487,32.09273896484375,27,33.56563896484375,27,35.37753896484375L27,51.99223896484375C31.13308,52.08183896484375,35.16195,51.38443896484375,38.9168,50.01673896484375C39.0751,47.79573896484375,40.912,46.03443896484375,43.1503,46.03443896484375L46.5617,46.03443896484375C51.482,42.59773896484375,55.487700000000004,37.81673896484375,58,32.09273896484375ZM46.442099999999996,41.12483896484375C43.3046,41.12483896484375,40.7499,38.54533896484375,40.7499,35.37753896484375C40.7499,32.20963896484375,43.3046,29.63012896484375,46.442099999999996,29.63012896484375C49.579499999999996,29.63012896484375,52.1342,32.20963896484375,52.1342,35.37753896484375C52.1342,38.54533896484375,49.579499999999996,41.12483896484375,46.442099999999996,41.12483896484375Z" fill="#82EAFF" fill-opacity="1"/></g><g><path d="M45.1297,20.48826896484375L36.849109999999996,27.693668964843752C36.43361,28.056298964843748,36.19609,28.572988964843752,36.19558,29.11534896484375L36.19558,31.581838964843747L30.24075,31.581838964843747C28.4493,31.581838964843747,27,32.99233896484375,27,34.72743896484375L27,39.99993896484375C31.97069,39.24993896484375,36.64921,37.39913896484375,40.7011,34.66393896484375C40.7357,31.66013896484375,43.265299999999996,29.22354896484375,46.367599999999996,29.22354896484375C46.5406,29.22354896484375,46.7059,29.23474896484375,46.8751,29.24966896484375C48.474199999999996,27.44273896484375,49.858000000000004,25.46622896484375,51,23.35773896484375L47.7708,20.49945896484375C47.024100000000004,19.83774096484375,45.8823,19.83290196484375,45.1297,20.48826896484375Z" fill="#B6F3FF" fill-opacity="1"/></g></g></svg>