<svg xmlns="http://www.w3.org/2000/svg" xmlns:xlink="http://www.w3.org/1999/xlink" fill="none" version="1.1" width="27" height="28" viewBox="0 0 27 28"><g style="mix-blend-mode:passthrough"><g><path d="M4.99994,7.00603C5.00106,1.73471,10.6108,-1.64289,15.272,0.821227C19.9333,3.28534,20.2991,9.82182,15.9418,12.7903C16.5138,12.9773,17.1238,13.1982,17.7698,13.4521C14.0338,15.1526,12.1109,17.8358,11.9999,21.5017C11.9229,24.043,13.1159,26.3243,14.8858,27.8819C8.13991,28.4317,0.100999,27.0621,0,23.7771C0,18.6776,3.30496,14.3349,7.92891,12.6993C6.0894,11.3865,4.99828,9.26556,4.99994,7.00603Z" fill="#027AFF" fill-opacity="1"/></g><g><path d="M20.5,15C24.0899,15,27,17.91015,27,21.5C27,25.0899,24.0899,28,20.5,28C16.91015,28,14,25.0899,14,21.5C14,17.91015,16.91015,15,20.5,15ZM23.439999999999998,19.002L19.913,22.97L17.969,21.414C17.64536,21.154980000000002,17.17302,21.20736,16.914,21.531C16.65497,21.85463,16.70736,22.32698,17.031,22.586L19.531,24.586C19.842950000000002,24.83574,20.29593,24.797040000000003,20.561,24.497999999999998L24.561,19.998C24.836,19.68817,24.8078,19.21404,24.497999999999998,18.939C24.188200000000002,18.66396,23.71404,18.69216,23.439,19.002L23.439999999999998,19.002Z" fill="#027AFF" fill-opacity="1"/></g></g></svg>